Coordinates
version=1
nRows=24
nColumns=38
inDegrees=no

Units are S.I. units (second, meters, Newtons, ...)
If the header above contains a line with 'inDegrees', this indicates whether rotational values are in degrees (yes) or radians (no).

endheader
time	pelvis_tilt	pelvis_list	pelvis_rotation	pelvis_tx	pelvis_ty	pelvis_tz	hip_flexion_r	hip_adduction_r	hip_rotation_r	knee_angle_r	ankle_angle_r	subtalar_angle_r	mtp_angle_r	hip_flexion_l	hip_adduction_l	hip_rotation_l	knee_angle_l	ankle_angle_l	subtalar_angle_l	mtp_angle_l	lumbar_extension	lumbar_bending	lumbar_rotation	arm_flex_r	arm_add_r	arm_rot_r	elbow_flex_r	pro_sup_r	wrist_flex_r	wrist_dev_r	arm_flex_l	arm_add_l	arm_rot_l	elbow_flex_l	pro_sup_l	wrist_flex_l	wrist_dev_l
0	-1.97987	1.535	0.500475	0.737129	1.77445	1.01213	0.577586	0.0376149	-0.116609	0.506925	-0.152007	0	0	-0.162807	-0.0303698	-0.261476	0.418239	-0.0969905	0	0	-0.384607	0.0886398	0.0450059	0.0617835	-0.314793	0.886705	0.31619	0.849877	0	0	0.115478	-0.294885	0.814148	0.398183	1.00972	0	0
0.01	-2.21788	1.53082	0.743554	0.737253	1.76404	1.00969	0.587693	0.0327358	-0.119214	0.487773	-0.1468	0	0	-0.163033	-0.0304329	-0.251188	0.41838	-0.0950501	0	0	-0.374447	0.089224	0.0381538	0.0619025	-0.312832	0.88833	0.315016	0.849133	0	0	0.112889	-0.295518	0.806041	0.398781	1.01393	0	0
0.02	-2.30748	1.52784	0.838163	0.737419	1.75293	1.00769	0.592691	0.0275489	-0.126401	0.477617	-0.140035	0	0	-0.169042	-0.0336615	-0.249472	0.419723	-0.0943583	0	0	-0.369277	0.0911692	0.0313476	0.061699	-0.310995	0.888959	0.313864	0.849194	0	0	0.110387	-0.295441	0.800986	0.397356	1.01677	0	0
0.03	-2.3381	1.52656	0.874371	0.737618	1.74174	1.00604	0.594121	0.0229695	-0.129331	0.473453	-0.132379	0	0	-0.177896	-0.037474	-0.247896	0.421334	-0.0944839	0	0	-0.367612	0.0932876	0.024606	0.0617609	-0.309141	0.88902	0.312718	0.849129	0	0	0.108851	-0.295177	0.797525	0.394986	1.02037	0	0
0.04	-2.34165	1.52625	0.882798	0.737824	1.73037	1.00456	0.592711	0.0199373	-0.129044	0.473202	-0.122189	0	0	-0.188706	-0.0411053	-0.246469	0.422612	-0.0953242	0	0	-0.367492	0.095208	0.0183267	0.0618682	-0.307447	0.888707	0.31156	0.848785	0	0	0.107086	-0.294582	0.793341	0.391772	1.02626	0	0
0.05	-2.33339	1.5261	0.878464	0.737913	1.71869	1.00319	0.591351	0.0180473	-0.12824	0.480839	-0.11329	0	0	-0.200546	-0.0448481	-0.246106	0.423336	-0.0971611	0	0	-0.36799	0.0974723	0.0125705	0.0618579	-0.30635	0.888288	0.311197	0.848584	0	0	0.105273	-0.293346	0.787586	0.388024	1.02993	0	0
0.06	-2.3005	1.52668	0.84862	0.737884	1.70675	1.00196	0.589692	0.0170676	-0.126118	0.497087	-0.105805	0	0	-0.214472	-0.0490658	-0.247653	0.423148	-0.100713	0	0	-0.369532	0.0997444	0.00714433	0.0618715	-0.305802	0.889221	0.31191	0.849817	0	0	0.102332	-0.292364	0.780759	0.384103	1.03663	0	0
0.07	-2.25372	1.52692	0.804382	0.737825	1.69454	1.00077	0.586604	0.0177965	-0.122558	0.515915	-0.103684	0	0	-0.228457	-0.0539271	-0.249996	0.423994	-0.104897	0	0	-0.371192	0.102398	0.0027103	0.0610925	-0.306177	0.890062	0.313874	0.851112	0	0	0.0981846	-0.292123	0.770234	0.383885	1.04252	0	0
0.08	-2.18309	1.52745	0.735734	0.737681	1.68204	0.999707	0.581212	0.0202896	-0.117404	0.537473	-0.105807	0	0	-0.24363	-0.0592885	-0.253247	0.424893	-0.109675	0	0	-0.373891	0.105473	-0.00175741	0.0601024	-0.307221	0.890911	0.316866	0.852318	0	0	0.0928698	-0.292436	0.75855	0.385208	1.04553	0	0
0.09	-2.06736	1.52835	0.621733	0.737382	1.6693	0.99878	0.572404	0.0249193	-0.111344	0.558547	-0.111548	0	0	-0.260731	-0.0655396	-0.256483	0.426441	-0.115167	0	0	-0.378821	0.108762	-0.00583865	0.059354	-0.30805	0.892875	0.319538	0.853845	0	0	0.0869794	-0.293888	0.750853	0.385915	1.05436	0	0
0.1	-1.9754	1.52696	0.531778	0.736908	1.65626	0.997811	0.566325	0.0300244	-0.110311	0.577443	-0.122375	0	0	-0.274861	-0.0728544	-0.257062	0.430221	-0.121037	0	0	-0.382063	0.113298	-0.00995165	0.0586916	-0.307797	0.895382	0.319957	0.855722	0	0	0.0810441	-0.293946	0.741336	0.385062	1.0617	0	0
0.11	-1.94948	1.52257	0.510213	0.736512	1.64298	0.996918	0.565273	0.0327915	-0.116306	0.591782	-0.132324	0	0	-0.283125	-0.0820788	-0.252819	0.436623	-0.126849	0	0	-0.381838	0.120453	-0.0159368	0.0582048	-0.306128	0.896292	0.316965	0.85654	0	0	0.0764673	-0.291515	0.732122	0.380822	1.06265	0	0
0.12	-1.89553	1.51642	0.458389	0.736055	1.62991	0.996554	0.563997	0.0382591	-0.121291	0.605132	-0.141676	0	0	-0.290479	-0.0926656	-0.248829	0.445895	-0.133923	0	0	-0.383699	0.129765	-0.020129	0.0596777	-0.30546	0.898273	0.313998	0.857965	0	0	0.0733656	-0.287158	0.722917	0.374365	1.06093	0	0
0.13	-1.82678	1.50895	0.389213	0.735425	1.61695	0.996659	0.561432	0.047447	-0.122365	0.621456	-0.151358	0	0	-0.297527	-0.103856	-0.245945	0.458287	-0.14238	0	0	-0.386928	0.140098	-0.0220662	0.0619147	-0.306054	0.901345	0.312633	0.860049	0	0	0.0702514	-0.282529	0.715249	0.367348	1.06089	0	0
0.14	-1.77359	1.50096	0.333482	0.734611	1.60391	0.997036	0.559173	0.0585927	-0.11814	0.64196	-0.161387	0	0	-0.302856	-0.114367	-0.244141	0.47465	-0.151983	0	0	-0.389544	0.14985	-0.0218229	0.0634624	-0.307556	0.905055	0.312998	0.862873	0	0	0.0665221	-0.278296	0.708519	0.361805	1.0626	0	0
0.15	-1.74154	1.49389	0.296281	0.733542	1.59067	0.997538	0.558158	0.0699271	-0.109593	0.665429	-0.170624	0	0	-0.306501	-0.122672	-0.245153	0.494044	-0.163483	0	0	-0.39101	0.157175	-0.019318	0.0639188	-0.309422	0.909607	0.3144	0.866643	0	0	0.0616485	-0.274516	0.703573	0.356944	1.06944	0	0
0.16	-1.72684	1.48862	0.273838	0.732239	1.57715	0.998084	0.556546	0.0811648	-0.0975127	0.686708	-0.177743	0	0	-0.30708	-0.128602	-0.250727	0.519526	-0.178129	0	0	-0.391846	0.161399	-0.01529	0.0637381	-0.311197	0.913837	0.315891	0.869915	0	0	0.0559752	-0.270952	0.69709	0.352528	1.07997	0	0
0.17	-1.70063	1.48545	0.241001	0.730944	1.56365	0.998837	0.550648	0.0905885	-0.0899547	0.702285	-0.17924	0	0	-0.305698	-0.133165	-0.255203	0.550835	-0.194335	0	0	-0.39433	0.163974	-0.0132508	0.0638662	-0.312458	0.917187	0.317328	0.871819	0	0	0.0505759	-0.267565	0.686986	0.348887	1.0903	0	0
0.18	-1.66279	1.48391	0.197666	0.729565	1.5502	0.999728	0.54109	0.0980506	-0.0897783	0.713069	-0.175391	0	0	-0.301961	-0.136543	-0.256747	0.58773	-0.210595	0	0	-0.398197	0.164851	-0.0126102	0.0642818	-0.312918	0.92069	0.318447	0.873403	0	0	0.0456632	-0.265167	0.676466	0.345128	1.09791	0	0
0.19	-1.63179	1.48267	0.161978	0.72815	1.53682	1.00056	0.530733	0.104746	-0.0939521	0.720577	-0.168318	0	0	-0.293584	-0.13938	-0.254327	0.630217	-0.227231	0	0	-0.401019	0.165224	-0.0127436	0.0645439	-0.313126	0.924439	0.319386	0.874951	0	0	0.0408134	-0.263393	0.667103	0.340599	1.1037	0	0
0.2	-1.62441	1.48117	0.15057	0.72672	1.52362	1.00116	0.52172	0.111616	-0.0982129	0.725877	-0.159293	0	0	-0.278615	-0.14156	-0.246996	0.67789	-0.242595	0	0	-0.401038	0.165311	-0.0131048	0.0641027	-0.313385	0.927206	0.320592	0.875703	0	0	0.0356683	-0.263164	0.660736	0.338233	1.10759	0	0
0.21	-1.64832	1.47862	0.170468	0.725215	1.51065	1.00144	0.51592	0.119279	-0.1016	0.732082	-0.147617	0	0	-0.256293	-0.1432	-0.235075	0.730618	-0.258008	0	0	-0.396999	0.165737	-0.0126735	0.0626488	-0.314275	0.930162	0.32263	0.876054	0	0	0.0298245	-0.263779	0.654663	0.338452	1.11104	0	0
0.22	-1.69272	1.47494	0.210753	0.723773	1.49802	1.00159	0.512079	0.127745	-0.101683	0.738777	-0.136061	0	0	-0.22893	-0.144594	-0.220172	0.785453	-0.269528	0	0	-0.390218	0.166845	-0.0108948	0.0605965	-0.316211	0.933845	0.325695	0.87702	0	0	0.0245227	-0.264018	0.649207	0.339557	1.11293	0	0
0.23	-1.74381	1.46997	0.257653	0.722475	1.48575	1.00171	0.508461	0.137463	-0.0963214	0.744483	-0.124776	0	0	-0.198494	-0.146498	-0.203829	0.841526	-0.271729	0	0	-0.382173	0.168934	-0.00794282	0.0584032	-0.319232	0.938041	0.329625	0.878184	0	0	0.019802	-0.264147	0.644301	0.341422	1.11373	0	0
